<?xml version="1.0" encoding="UTF-8"?>
<svg id="Layer_1" data-name="Layer 1" xmlns="http://www.w3.org/2000/svg" width="23" height="23" viewBox="0 0 23 23">
  <defs>
    <style>
      .cls-1 {
        fill: rgba(224, 224, 224, .9);
        fill-rule: evenodd;
      }
    </style>
  </defs>
  <path class="cls-1" d="M22.42,4.73c.58,1.41,.58,3.2,.58,6.77s0,5.36-.58,6.77c-.78,1.88-2.27,3.37-4.15,4.15-1.41,.58-3.2,.58-6.77,.58h-3.83c-3.61,0-5.42,0-6.54-1.12-1.12-1.12-1.12-2.93-1.12-6.54v-3.83c0-3.57,0-5.36,.58-6.77C1.36,2.85,2.85,1.36,4.73,.58c1.41-.58,3.2-.58,6.77-.58s5.36,0,6.77,.58c1.88,.78,3.37,2.27,4.15,4.15Zm-10.92,.74c1.21,0,2.19,.98,2.19,2.19v1.64h1.64c1.21,0,2.19,.98,2.19,2.19s-.98,2.19-2.19,2.19h-1.64v1.64c0,1.21-.98,2.19-2.19,2.19s-2.19-.98-2.19-2.19v-1.64h-1.64c-1.21,0-2.19-.98-2.19-2.19s.98-2.19,2.19-2.19h1.64v-1.64c0-1.21,.98-2.19,2.19-2.19Z"/>
</svg>