<svg width="24" height="23" viewBox="0 0 24 23" fill="none" xmlns="http://www.w3.org/2000/svg">
<g filter="url(#filter0_d_403_1151)">
<path d="M10.6 15.6L17.65 8.55L16.25 7.15L10.6 12.8L7.75 9.95L6.35 11.35L10.6 15.6ZM12 21C10.6167 21 9.31667 20.7375 8.1 20.2125C6.88333 19.6875 5.825 18.975 4.925 18.075C4.025 17.175 3.3125 16.1167 2.7875 14.9C2.2625 13.6833 2 12.3833 2 11C2 9.61667 2.2625 8.31667 2.7875 7.1C3.3125 5.88333 4.025 4.825 4.925 3.925C5.825 3.025 6.88333 2.3125 8.1 1.7875C9.31667 1.2625 10.6167 1 12 1C13.3833 1 14.6833 1.2625 15.9 1.7875C17.1167 2.3125 18.175 3.025 19.075 3.925C19.975 4.825 20.6875 5.88333 21.2125 7.1C21.7375 8.31667 22 9.61667 22 11C22 12.3833 21.7375 13.6833 21.2125 14.9C20.6875 16.1167 19.975 17.175 19.075 18.075C18.175 18.975 17.1167 19.6875 15.9 20.2125C14.6833 20.7375 13.3833 21 12 21ZM12 19C14.2333 19 16.125 18.225 17.675 16.675C19.225 15.125 20 13.2333 20 11C20 8.76667 19.225 6.875 17.675 5.325C16.125 3.775 14.2333 3 12 3C9.76667 3 7.875 3.775 6.325 5.325C4.775 6.875 4 8.76667 4 11C4 13.2333 4.775 15.125 6.325 16.675C7.875 18.225 9.76667 19 12 19Z" fill="#50C878"/>
</g>
<defs>
<filter id="filter0_d_403_1151" x="0" y="0" width="24" height="24" filterUnits="userSpaceOnUse" color-interpolation-filters="sRGB">
<feFlood flood-opacity="0" result="BackgroundImageFix"/>
<feColorMatrix in="SourceAlpha" type="matrix" values="0 0 0 0 0 0 0 0 0 0 0 0 0 0 0 0 0 0 127 0" result="hardAlpha"/>
<feOffset dy="1"/>
<feGaussianBlur stdDeviation="1"/>
<feComposite in2="hardAlpha" operator="out"/>
<feColorMatrix type="matrix" values="0 0 0 0 0 0 0 0 0 0 0 0 0 0 0 0 0 0 0.2 0"/>
<feBlend mode="normal" in2="BackgroundImageFix" result="effect1_dropShadow_403_1151"/>
<feBlend mode="normal" in="SourceGraphic" in2="effect1_dropShadow_403_1151" result="shape"/>
</filter>
</defs>
</svg>
