<svg width="22" height="22" viewBox="0 0 22 22" fill="none" xmlns="http://www.w3.org/2000/svg">
<path d="M7.03333 15.2L2.83333 11L7.03333 6.8L8.66667 8.4625L6.12917 11L8.66667 13.5375L7.03333 15.2ZM14.9667 15.2L13.3333 13.5375L15.8708 11L13.3333 8.4625L14.9667 6.8L19.1667 11L14.9667 15.2ZM2.83333 21.5C2.19167 21.5 1.64236 21.2715 1.18542 20.8146C0.728472 20.3576 0.5 19.8083 0.5 19.1667V14.5H2.83333V19.1667H7.5V21.5H2.83333ZM14.5 21.5V19.1667H19.1667V14.5H21.5V19.1667C21.5 19.8083 21.2715 20.3576 20.8146 20.8146C20.3576 21.2715 19.8083 21.5 19.1667 21.5H14.5ZM0.5 7.5V2.83333C0.5 2.19167 0.728472 1.64236 1.18542 1.18542C1.64236 0.728472 2.19167 0.5 2.83333 0.5H7.5V2.83333H2.83333V7.5H0.5ZM19.1667 7.5V2.83333H14.5V0.5H19.1667C19.8083 0.5 20.3576 0.728472 20.8146 1.18542C21.2715 1.64236 21.5 2.19167 21.5 2.83333V7.5H19.1667Z" fill="#E0E0E0" fill-opacity="0.9"/>
</svg>
