<?xml version="1.0" encoding="utf-8"?>
<!-- Generator: Adobe Illustrator 26.5.0, SVG Export Plug-In . SVG Version: 6.00 Build 0)  -->
<svg version="1.1" id="Layer_1" xmlns="http://www.w3.org/2000/svg" xmlns:xlink="http://www.w3.org/1999/xlink" x="0px" y="0px"
	 viewBox="0 0 23 23" style="enable-background:new 0 0 23 23;" xml:space="preserve">
<style type="text/css">
	.st0{fill-rule:evenodd;clip-rule:evenodd;fill:#D4D4D4;}
</style>
<path class="st0" d="M5.4,6.1c-0.6-0.6-1.5-0.6-2.1,0c-0.6,0.6-0.6,1.5,0,2.1l7.2,7.2c0.6,0.6,1.5,0.6,2.1,0l7.2-7.2
	c0.6-0.6,0.6-1.5,0-2.1c-0.6-0.6-1.5-0.6-2.1,0L13,10.8V0h7c1.7,0,3,1.3,3,3v17c0,1.7-1.3,3-3,3H3c-1.7,0-3-1.3-3-3V3
	c0-1.7,1.3-3,3-3h7v10.8L5.4,6.1z"/>
</svg>
