<svg width="631" height="218" viewBox="0 0 631 218" fill="none" xmlns="http://www.w3.org/2000/svg">
<path d="M166 70.0071V147.999L109.651 131.882C107.716 131.33 106.384 129.557 106.384 127.545C106.384 125.529 105.051 123.759 103.116 123.207L68.6339 113.346C64.2762 112.102 64.2762 105.912 68.6339 104.668L103.116 94.8026C105.051 94.2506 106.384 92.4773 106.384 90.4651C106.384 88.4491 107.716 86.6797 109.651 86.1238L166 70.0071Z" fill="#F5F5F5"/>
<path d="M165.222 170.086H50.4723C48.4244 170.086 46.7673 168.426 46.7673 166.375V129.4L103.695 145.682C105.285 146.136 106.384 147.592 106.384 149.252V150.465C106.384 152.121 107.482 153.577 109.073 154.035L165.226 170.093L165.222 170.086Z" fill="#F5F5F5"/>
<path d="M165.222 47.9205L109.651 63.8102C107.716 64.3621 106.38 66.1355 106.38 68.1515C106.38 70.1676 105.047 71.9409 103.109 72.4929L46.7673 88.6057V52.4341C46.7673 49.9405 48.7839 47.9205 51.2735 47.9205H165.222Z" fill="#F5F5F5"/>
<path d="M235.201 84.2741C235.647 84.5466 235.982 84.8959 236.191 85.336C236.401 85.7691 236.366 86.286 236.073 86.8868L229.378 96.6666C229.085 97.1277 228.778 97.3931 228.443 97.463C228.115 97.5328 227.711 97.4141 227.237 97.1137C225.939 96.1078 224.517 95.3324 222.954 94.7945C221.392 94.2496 219.746 93.9772 218.003 93.9772C215.834 93.9772 213.839 94.3963 212.019 95.2415C210.199 96.0868 208.623 97.2394 207.304 98.7064C205.979 100.173 204.954 101.885 204.215 103.841C203.476 105.797 203.106 107.886 203.106 110.114C203.106 112.342 203.476 114.424 204.215 116.366C204.954 118.308 205.986 120.006 207.304 121.459C208.623 122.912 210.199 124.057 212.019 124.902C213.839 125.748 215.834 126.167 218.003 126.167C219.746 126.167 221.413 125.887 222.996 125.329C224.579 124.77 226.023 123.994 227.313 122.988C227.788 122.688 228.185 122.569 228.506 122.625C228.82 122.681 229.14 122.926 229.454 123.359L236.233 133.383C236.526 133.984 236.561 134.48 236.352 134.892C236.143 135.297 235.808 135.639 235.361 135.912C232.879 137.623 230.201 138.944 227.334 139.887C224.468 140.823 221.448 141.291 218.275 141.291C215.471 141.291 212.786 140.92 210.213 140.187C207.639 139.453 205.226 138.406 202.98 137.05C200.735 135.695 198.691 134.068 196.857 132.181C195.023 130.295 193.44 128.207 192.122 125.908C190.797 123.61 189.785 121.144 189.067 118.497C188.356 115.849 188 113.083 188 110.205C188 107.327 188.356 104.56 189.067 101.913C189.778 99.2653 190.797 96.7784 192.122 94.4592C193.44 92.1399 195.023 90.0233 196.857 88.1232C198.691 86.2231 200.735 84.6025 202.98 83.2542C205.226 81.913 207.639 80.8652 210.213 80.1177C212.786 79.3702 215.478 79 218.275 79C221.448 79 224.44 79.4541 227.251 80.3622C230.061 81.2703 232.711 82.5836 235.194 84.2951L235.201 84.2741Z" fill="#F5F5F5"/>
<path d="M242.97 114.543C242.97 112.042 243.277 109.639 243.905 107.334C244.525 105.028 245.397 102.884 246.52 100.921C247.643 98.9509 248.989 97.1626 250.565 95.5419C252.134 93.9282 253.885 92.5451 255.817 91.4064C257.748 90.2678 259.827 89.3806 262.058 88.7589C264.29 88.1372 266.62 87.8228 269.054 87.8228C272.645 87.8228 276.021 88.5074 279.18 89.8836C282.339 91.2527 285.087 93.1458 287.423 95.5489C289.76 97.952 291.608 100.774 292.975 104.022C294.335 107.271 295.018 110.778 295.018 114.557C295.018 117.058 294.704 119.454 294.084 121.745C293.463 124.043 292.591 126.181 291.468 128.158C290.346 130.142 289 131.937 287.423 133.558C285.847 135.178 284.104 136.561 282.172 137.714C280.24 138.867 278.176 139.761 275.972 140.383C273.768 141.004 271.46 141.319 269.054 141.319C266.647 141.319 264.29 141.004 262.058 140.383C259.827 139.761 257.741 138.867 255.817 137.714C253.885 136.561 252.134 135.178 250.565 133.558C248.996 131.944 247.643 130.142 246.52 128.158C245.397 126.174 244.525 124.036 243.905 121.745C243.284 119.447 242.97 117.051 242.97 114.557V114.543ZM257.435 114.543C257.435 116.338 257.707 118.015 258.251 119.572C258.795 121.137 259.562 122.485 260.552 123.624C261.542 124.763 262.742 125.671 264.158 126.334C265.573 126.998 267.164 127.333 268.935 127.333C270.706 127.333 272.206 126.998 273.594 126.334C274.982 125.671 276.153 124.763 277.123 123.624C278.085 122.485 278.824 121.13 279.34 119.572C279.856 118.008 280.115 116.331 280.115 114.543C280.115 112.754 279.856 111.148 279.34 109.576C278.824 108.004 278.085 106.614 277.123 105.42C276.16 104.225 274.982 103.282 273.594 102.59C272.206 101.899 270.658 101.55 268.935 101.55C267.212 101.55 265.573 101.899 264.158 102.59C262.742 103.282 261.542 104.225 260.552 105.42C259.562 106.614 258.795 107.997 258.251 109.576C257.707 111.148 257.435 112.81 257.435 114.543Z" fill="#F5F5F5"/>
<path d="M303.931 89.3667C304.273 89.0663 304.636 88.8777 305.019 88.7939C305.403 88.71 305.765 88.6751 306.107 88.6751H312.091C312.565 88.6751 312.977 88.7659 313.318 88.9405C313.66 89.1152 313.953 89.3527 314.19 89.6531C314.427 89.9535 314.623 90.2888 314.762 90.666C314.909 91.0432 315.048 91.4344 315.181 91.8466L316.01 95.4232C316.408 94.5849 316.973 93.7187 317.712 92.8246C318.451 91.9304 319.393 91.1201 320.53 90.3866C321.666 89.6531 323.019 89.0523 324.596 88.5773C326.165 88.1023 328.013 87.8648 330.126 87.8648C331.793 87.8648 333.306 88.0324 334.666 88.3747C336.026 88.71 337.268 89.213 338.391 89.8766C339.513 90.5403 340.539 91.3506 341.459 92.3146C342.387 93.2786 343.258 94.3823 344.074 95.6258C344.577 94.7875 345.323 93.9073 346.313 92.9852C347.303 92.0631 348.489 91.2249 349.863 90.4634C351.237 89.702 352.771 89.0803 354.459 88.5913C356.147 88.1023 357.946 87.8578 359.85 87.8578C362.863 87.8578 365.492 88.4516 367.738 89.6461C369.983 90.8406 371.852 92.4613 373.345 94.5221C374.837 96.5828 375.953 98.9859 376.693 101.738C377.432 104.491 377.801 107.424 377.801 110.554V137.239C377.801 138.273 377.585 139.048 377.146 139.579C376.706 140.11 376.016 140.376 375.068 140.376H365.91C364.774 140.376 363.993 140.18 363.574 139.782C363.149 139.391 362.939 138.622 362.939 137.484V110.554C362.939 109.387 362.758 108.298 362.403 107.292C362.047 106.286 361.552 105.413 360.917 104.665C360.282 103.918 359.508 103.338 358.595 102.912C357.681 102.493 356.67 102.283 355.561 102.283C354.557 102.283 353.608 102.486 352.708 102.891C351.809 103.296 351.021 103.862 350.33 104.581C349.64 105.301 349.096 106.167 348.684 107.187C348.273 108.207 348.071 109.325 348.071 110.547V137.232C348.071 138.266 347.854 139.041 347.415 139.572C346.983 140.103 346.285 140.369 345.337 140.369H336.18C335.043 140.369 334.262 140.173 333.843 139.775C333.418 139.384 333.209 138.615 333.209 137.477V110.547C333.209 109.38 333.041 108.291 332.714 107.285C332.386 106.279 331.905 105.406 331.284 104.658C330.663 103.911 329.91 103.331 329.024 102.905C328.138 102.486 327.141 102.276 326.032 102.276C325.084 102.276 324.149 102.472 323.236 102.863C322.322 103.254 321.506 103.813 320.781 104.532C320.055 105.252 319.449 106.111 318.961 107.117C318.472 108.123 318.186 109.234 318.11 110.456V137.344C318.11 137.805 318.026 138.266 317.852 138.727C317.677 139.188 317.419 139.544 317.077 139.789C316.736 140.005 316.408 140.152 316.108 140.236C315.801 140.32 315.453 140.355 315.055 140.355H306.1C304.963 140.355 304.147 140.068 303.645 139.502C303.143 138.93 302.892 138.175 302.892 137.218V91.6649C302.892 91.148 303.004 90.673 303.227 90.2399C303.45 89.8068 303.764 89.4645 304.154 89.227L303.917 89.3457L303.931 89.3667Z" fill="#F5F5F5"/>
<path d="M388.388 89.1222C388.73 88.8218 389.086 88.6332 389.462 88.5493C389.832 88.4655 390.187 88.4306 390.536 88.4306H396.52C397.022 88.4306 397.441 88.5144 397.768 88.6751C398.096 88.8358 398.368 89.0593 398.584 89.3457C398.794 89.6321 398.975 89.9535 399.121 90.3237C399.268 90.687 399.407 91.0921 399.54 91.5252L401.207 96.4571C401.946 95.4791 402.692 94.4801 403.445 93.4602C404.199 92.4403 405.091 91.5182 406.123 90.6869C407.156 89.8557 408.383 89.1711 409.813 88.6332C411.242 88.0883 412.986 87.8159 415.043 87.8159C418.663 87.8159 421.997 88.5005 425.051 89.8766C428.106 91.2458 430.735 93.1389 432.939 95.542C435.143 97.945 436.865 100.767 438.114 104.015C439.355 107.264 439.976 110.771 439.976 114.55C439.976 118.329 439.355 121.801 438.114 125.063C436.872 128.325 435.15 131.155 432.939 133.558C430.735 135.961 428.106 137.854 425.051 139.237C421.997 140.62 418.663 141.312 415.043 141.312C413.328 141.312 411.849 141.102 410.601 140.683C409.352 140.264 408.258 139.712 407.288 139.034C406.326 138.357 405.475 137.609 404.736 136.792C403.996 135.975 403.271 135.164 402.553 134.347V153.334C402.553 154.151 402.316 154.843 401.841 155.409C401.367 155.981 400.628 156.261 399.624 156.261H390.55C390.229 156.261 389.888 156.191 389.518 156.058C389.148 155.919 388.807 155.73 388.486 155.485C388.165 155.241 387.907 154.934 387.691 154.57C387.481 154.207 387.37 153.788 387.37 153.327V91.4484C387.37 90.9035 387.468 90.4564 387.67 90.1071C387.872 89.7579 388.109 89.4295 388.402 89.1292L388.388 89.1222ZM425.407 114.543C425.407 112.803 425.128 111.155 424.577 109.597C424.019 108.032 423.245 106.67 422.241 105.503C421.236 104.337 420.037 103.415 418.635 102.73C417.233 102.053 415.692 101.71 413.997 101.71C412.303 101.71 410.754 102.032 409.262 102.667C407.769 103.303 406.458 104.176 405.342 105.273C404.219 106.37 403.306 107.669 402.608 109.164C401.911 110.659 401.52 112.245 401.437 113.928V114.543C401.437 116.338 401.765 118.022 402.427 119.593C403.09 121.165 403.982 122.534 405.126 123.687C406.263 124.84 407.595 125.755 409.129 126.439C410.664 127.117 412.289 127.459 414.004 127.459C415.72 127.459 417.24 127.117 418.642 126.439C420.044 125.762 421.243 124.847 422.248 123.687C423.252 122.534 424.033 121.165 424.584 119.593C425.135 118.022 425.414 116.331 425.414 114.543H425.407Z" fill="#F5F5F5"/>
<path d="M466.666 91.9723C466.959 91.6719 467.349 91.5252 467.859 91.5252C468.389 91.5252 468.821 91.6998 469.17 92.0561L475.509 98.5737C475.691 98.7623 475.83 98.9649 475.907 99.1884C475.983 99.405 476.053 99.6215 476.102 99.8381C476.046 100.027 475.99 100.229 475.921 100.446C475.858 100.662 475.746 100.879 475.586 101.095L462.628 114.501L475.586 127.906C475.928 128.367 476.102 128.786 476.102 129.171C476.102 129.688 475.893 130.163 475.467 130.596L468.967 137.113C468.654 137.491 468.277 137.686 467.859 137.686C467.412 137.686 467.001 137.498 466.631 137.113L445.904 115.723C445.506 115.318 445.311 114.92 445.311 114.543C445.311 114.11 445.506 113.691 445.904 113.278L466.673 91.9723H466.666Z" fill="#F5F5F5"/>
<path d="M483.195 91.651C483.195 91.134 483.285 90.687 483.474 90.3097C483.655 89.9325 483.906 89.6182 484.206 89.3737C484.513 89.1292 484.855 88.9475 485.238 88.8218C485.622 88.703 485.998 88.6402 486.368 88.6402H492.352C493.014 88.6402 493.544 88.8427 493.935 89.2479C494.332 89.6531 494.667 90.17 494.946 90.7987C495.225 91.4204 495.469 92.119 495.678 92.8734C495.888 93.6349 496.139 94.3684 496.432 95.0739C497.227 94.1798 498.008 93.2926 498.789 92.4264C499.57 91.5602 500.407 90.7847 501.307 90.1071C502.206 89.4295 503.19 88.8777 504.257 88.4585C505.324 88.0394 506.551 87.8298 507.925 87.8298C509.299 87.8298 510.624 87.9416 511.747 88.1582C512.87 88.3747 513.93 88.696 514.941 89.1152C515.945 89.5343 516.943 90.0722 517.933 90.7219C518.923 91.3715 519.997 92.133 521.162 93.0062C522.299 93.6838 522.864 94.4871 522.864 95.4092C522.864 96.01 522.641 96.7016 522.187 97.484L518.582 103.799C517.87 104.861 516.984 105.385 515.924 105.385C515.394 105.385 514.802 105.238 514.139 104.938C513.002 103.799 511.845 102.947 510.673 102.395C509.494 101.836 508.155 101.557 506.649 101.557C505.617 101.557 504.71 101.703 503.936 102.004C503.155 102.304 502.45 102.723 501.816 103.268C501.181 103.813 500.588 104.463 500.03 105.224C499.479 105.985 498.921 106.824 498.363 107.753V137.246C498.363 138.28 498.119 139.055 497.631 139.586C497.143 140.117 496.327 140.383 495.19 140.383H486.27C484.206 140.383 483.181 139.335 483.181 137.246V91.6579L483.195 91.651Z" fill="#F5F5F5"/>
<path d="M569.793 134.179C567.47 136.38 564.855 138.098 561.947 139.335C559.039 140.571 555.963 141.186 552.713 141.186C549.094 141.186 545.669 140.508 542.447 139.146C539.225 137.791 536.394 135.905 533.967 133.502C531.533 131.099 529.608 128.27 528.178 125.007C526.748 121.745 526.037 118.203 526.037 114.375C526.037 111.986 526.323 109.667 526.888 107.431C527.453 105.189 528.262 103.093 529.308 101.137C530.354 99.1814 531.616 97.3861 533.116 95.7375C534.608 94.0959 536.282 92.6918 538.13 91.5182C539.978 90.3516 541.987 89.4435 544.156 88.7868C546.325 88.1372 548.605 87.8088 551.011 87.8088C553.201 87.8088 555.335 88.1092 557.393 88.703C559.457 89.3038 561.389 90.142 563.202 91.2318C565.009 92.3215 566.668 93.6209 568.175 95.1437C569.681 96.6666 570.978 98.3292 572.059 100.131C573.14 101.941 573.984 103.869 574.577 105.916C575.17 107.969 575.47 110.079 575.47 112.251C575.47 113.663 575.449 114.815 575.414 115.716C575.372 116.611 575.17 117.323 574.8 117.854C574.431 118.385 573.817 118.748 572.959 118.951C572.101 119.153 570.839 119.258 569.172 119.258H540.634C540.899 120.997 541.436 122.45 542.238 123.617C543.047 124.784 543.974 125.713 545.035 126.404C546.088 127.096 547.217 127.592 548.403 127.892C549.589 128.193 550.711 128.339 551.772 128.339C552.72 128.339 553.703 128.235 554.708 128.032C555.712 127.829 556.681 127.557 557.623 127.215C558.557 126.872 559.422 126.481 560.196 126.034C560.977 125.587 561.605 125.119 562.079 124.63C562.505 124.281 562.867 124.015 563.167 123.834C563.474 123.659 563.795 123.568 564.137 123.568C564.478 123.568 564.827 123.687 565.19 123.931C565.546 124.176 565.95 124.532 566.396 124.993L570.595 129.883C570.888 130.239 571.069 130.554 571.153 130.84C571.229 131.127 571.271 131.42 571.271 131.713C571.271 132.258 571.125 132.726 570.839 133.118C570.546 133.509 570.204 133.858 569.807 134.158L569.793 134.179ZM550.725 100.243C549.693 100.243 548.696 100.453 547.734 100.872C546.771 101.291 545.864 101.857 545.021 102.562C544.177 103.268 543.417 104.071 542.74 104.965C542.064 105.86 541.52 106.775 541.094 107.697H561.347C560.796 106.635 560.189 105.657 559.548 104.763C558.899 103.869 558.16 103.079 557.33 102.402C556.5 101.724 555.545 101.193 554.478 100.816C553.404 100.439 552.155 100.243 550.732 100.243H550.725Z" fill="#F5F5F5"/>
</svg>
