<svg width="120" height="124" viewBox="0 0 120 124" fill="none" xmlns="http://www.w3.org/2000/svg">
<path d="M120 23.0071V100.999L63.6509 84.8823C61.7163 84.3304 60.3836 82.557 60.3836 80.5449C60.3836 78.5288 59.0509 76.7594 57.1163 76.2074L22.6339 66.3464C18.2762 65.1015 18.2762 58.9124 22.6339 57.6676L57.1163 47.8026C59.0509 47.2506 60.3836 45.4773 60.3836 43.4651C60.3836 41.4491 61.7163 39.6797 63.6509 39.1238L120 23.0071Z" fill="#F5F5F5"/>
<path d="M119.222 123.086H4.47229C2.42437 123.086 0.767273 121.426 0.767273 119.375V82.4005L57.6948 98.6816C59.2854 99.1357 60.3836 100.592 60.3836 102.252V103.465C60.3836 105.121 61.4818 106.577 63.0725 107.035L119.226 123.093L119.222 123.086Z" fill="#F5F5F5"/>
<path d="M119.222 0.920532L63.6509 16.8102C61.7163 17.3621 60.3797 19.1355 60.3797 21.1515C60.3797 23.1676 59.047 24.9409 57.1085 25.4929L0.767273 41.6057V5.43414C0.767273 2.9405 2.78393 0.920532 5.27348 0.920532H119.222Z" fill="#F5F5F5"/>
</svg>
