<svg width="131" height="131" viewBox="0 0 131 131" fill="none" xmlns="http://www.w3.org/2000/svg">
<g filter="url(#filter0_d_181_932)">
<path d="M16.375 43.6666H111.425C112.545 43.6666 113.105 43.6666 113.533 43.8846C113.909 44.0764 114.215 44.3823 114.407 44.7586C114.625 45.1865 114.625 45.7465 114.625 46.8666V105.967C114.625 107.087 114.625 107.647 114.407 108.075C114.215 108.451 113.909 108.757 113.533 108.949C113.105 109.167 112.545 109.167 111.425 109.167H19.575C18.4549 109.167 17.8948 109.167 17.467 108.949C17.0907 108.757 16.7847 108.451 16.593 108.075C16.375 107.647 16.375 107.087 16.375 105.967V43.6666Z" fill="#252526"/>
<path d="M16.375 31.2916C16.375 29.406 16.375 28.4632 16.9608 27.8774C17.5466 27.2916 18.4894 27.2916 20.375 27.2916H52.9265C53.744 27.2916 54.1527 27.2916 54.5203 27.4439C54.8878 27.5961 55.1768 27.8851 55.7549 28.4632L70.9583 43.6666H16.375V31.2916Z" fill="#252526"/>
<path d="M73 83L81 91M76 72.5C76 79.4036 70.1797 85 63 85C55.8203 85 50 79.4036 50 72.5C50 65.5964 55.8203 60 63 60C70.1797 60 76 65.5964 76 72.5Z" stroke="url(#paint0_linear_181_932)" stroke-width="5" stroke-linecap="round"/>
</g>
<defs>
<filter id="filter0_d_181_932" x="-7" y="-3" width="145" height="145" filterUnits="userSpaceOnUse" color-interpolation-filters="sRGB">
<feFlood flood-opacity="0" result="BackgroundImageFix"/>
<feColorMatrix in="SourceAlpha" type="matrix" values="0 0 0 0 0 0 0 0 0 0 0 0 0 0 0 0 0 0 127 0" result="hardAlpha"/>
<feOffset dy="4"/>
<feGaussianBlur stdDeviation="3.5"/>
<feComposite in2="hardAlpha" operator="out"/>
<feColorMatrix type="matrix" values="0 0 0 0 0 0 0 0 0 0 0 0 0 0 0 0 0 0 0.25 0"/>
<feBlend mode="normal" in2="BackgroundImageFix" result="effect1_dropShadow_181_932"/>
<feBlend mode="normal" in="SourceGraphic" in2="effect1_dropShadow_181_932" result="shape"/>
</filter>
<linearGradient id="paint0_linear_181_932" x1="47" y1="60" x2="83.5" y2="91" gradientUnits="userSpaceOnUse">
<stop stop-color="#F5F5F5" stop-opacity="0.15"/>
<stop offset="1" stop-color="#F5F5F5" stop-opacity="0.4"/>
</linearGradient>
</defs>
</svg>
