<?xml version="1.0" encoding="utf-8"?>
<!-- Generator: Adobe Illustrator 26.5.0, SVG Export Plug-In . SVG Version: 6.00 Build 0)  -->
<svg version="1.1" id="Layer_1" xmlns="http://www.w3.org/2000/svg" xmlns:xlink="http://www.w3.org/1999/xlink" x="0px" y="0px"
	 viewBox="0 0 23 23" style="enable-background:new 0 0 23 23;" xml:space="preserve">
<style type="text/css">
	.st0{fill-rule:evenodd;clip-rule:evenodd;fill:#D4D4D4;}
</style>
<path class="st0" d="M0,8c0-3.8,0-5.7,1.2-6.8S4.2,0,8,0h7.7c1.1,0,1.6,0,2.1,0.2s0.9,0.6,1.6,1.4l2,2c0.8,0.8,1.2,1.2,1.4,1.6
	C23,5.7,23,6.2,23,7.3V15c0,3.8,0,5.7-1.2,6.8c-0.8,0.8-2,1.1-3.9,1.1v-3.6v-0.1c0-0.9,0-1.7-0.1-2.3c-0.1-0.7-0.3-1.4-0.9-2
	c-0.6-0.6-1.3-0.8-2-0.9C14.3,14,13.6,14,12.7,14h-0.1H9.1H9c-0.9,0-1.7,0-2.3,0.1c-0.7,0.1-1.4,0.3-2,0.9c-0.6,0.6-0.8,1.3-0.9,2
	c-0.1,0.6-0.1,1.4-0.1,2.3v0.1v3.5c-1.2-0.1-2-0.4-2.6-1C0,20.7,0,18.8,0,15V8z M15.3,19.3V23H15H8c-0.6,0-1.1,0-1.6,0v-3.7
	c0-1,0-1.6,0.1-2c0.1-0.4,0.1-0.4,0.1-0.5l0,0l0,0c0,0,0.1-0.1,0.5-0.1c0.4-0.1,1-0.1,2-0.1h3.5c1,0,1.6,0,2,0.1
	c0.4,0.1,0.4,0.1,0.5,0.1l0,0l0,0c0,0,0.1,0.1,0.1,0.5C15.3,17.8,15.3,18.4,15.3,19.3z M5.1,5.1c-0.7,0-1.3,0.6-1.3,1.3
	c0,0.7,0.6,1.3,1.3,1.3h6.4c0.7,0,1.3-0.6,1.3-1.3c0-0.7-0.6-1.3-1.3-1.3H5.1z"/>
</svg>
