<?xml version="1.0" encoding="UTF-8"?>
<svg id="Layer_1" data-name="Layer 1" xmlns="http://www.w3.org/2000/svg" viewBox="0 0 23 23">
  <defs>
    <style>
      .cls-1 {
        fill: #e0e0e0;
      }
    </style>
  </defs>
  <path class="cls-1" d="M10.86,.17L1.92,5.27c-.41,.23-.66,.67-.66,1.15v10.15c0,.48,.25,.92,.66,1.15l8.94,5.1c.4,.23,.88,.23,1.27,0l8.94-5.1c.41-.23,.66-.67,.66-1.15V6.43c0-.48-.25-.92-.66-1.15L12.14,.17c-.4-.23-.88-.23-1.27,0Zm1.9,15.8c-3.53,.93-6.67-2.2-5.73-5.73,.41-1.55,1.66-2.8,3.21-3.21,3.53-.93,6.67,2.2,5.73,5.73-.41,1.55-1.66,2.8-3.21,3.21Z"/>
</svg>